# xmcd
#
# Track frame offsets: 
#        150
#        20157
#        42160
#        57952
#        80727
#        106765
#        125530
#        142565
#        162377
#        184080
#        199982
#        215967
#
# Disc length: 3101 seconds
#
# Revision: 0
# Processed by: cddbd v1.5.2PL0 Copyright (c) Steve Scherf et al.
# Submitted via: ExactAudioCopy v0.99pb5
#
DISCID=ad0c1b0c
DTITLE=ManDoki - Találkozások
DYEAR=1997
DGENRE=Jazz
TTITLE0=Ha a zene útjain jársz
TTITLE1=Ártatlan évek
TTITLE2=Ahol születtem
TTITLE3=Játsz tovább!
TTITLE4=Mélyre áss , vagy magasra szállj!
TTITLE5=Ugye lesz eröm?
TTITLE6=Szivárvány angyal
TTITLE7=Azt hiszem
TTITLE8=Kölcsön szerelem
TTITLE9=Túl sokág vártam
TTITLE10=Minden nap
TTITLE11=Csak álmod legyen még!
EXTD=
EXTT0=
EXTT1=
EXTT2=
EXTT3=
EXTT4=
EXTT5=
EXTT6=
EXTT7=
EXTT8=
EXTT9=
EXTT10=
EXTT11=
PLAYORDER=
